<svg width="533" height="538" viewBox="0 0 533 538" fill="none" xmlns="http://www.w3.org/2000/svg">
<path d="M266.5 338.417C312.294 338.417 349.417 301.294 349.417 255.5C349.417 209.706 312.294 172.583 266.5 172.583C220.707 172.583 183.583 209.706 183.583 255.5C183.583 301.294 220.707 338.417 266.5 338.417Z" stroke="white" stroke-width="4" stroke-linecap="round" stroke-linejoin="round"/>
<path d="M266.5 529.75C289.282 529.75 307.75 511.282 307.75 488.5C307.75 465.718 289.282 447.25 266.5 447.25C243.718 447.25 225.25 465.718 225.25 488.5C225.25 511.282 243.718 529.75 266.5 529.75Z" stroke="white" stroke-width="4" stroke-linecap="round" stroke-linejoin="round"/>
<path d="M433.5 456.75C456.282 456.75 474.75 438.282 474.75 415.5C474.75 392.718 456.282 374.25 433.5 374.25C410.718 374.25 392.25 392.718 392.25 415.5C392.25 438.282 410.718 456.75 433.5 456.75Z" stroke="white" stroke-width="4" stroke-linecap="round" stroke-linejoin="round"/>
<path d="M483.5 310.75C506.282 310.75 524.75 292.282 524.75 269.5C524.75 246.718 506.282 228.25 483.5 228.25C460.718 228.25 442.25 246.718 442.25 269.5C442.25 292.282 460.718 310.75 483.5 310.75Z" stroke="white" stroke-width="4" stroke-linecap="round" stroke-linejoin="round"/>
<path d="M433.5 164.75C456.282 164.75 474.75 146.282 474.75 123.5C474.75 100.718 456.282 82.25 433.5 82.25C410.718 82.25 392.25 100.718 392.25 123.5C392.25 146.282 410.718 164.75 433.5 164.75Z" stroke="white" stroke-width="4" stroke-linecap="round" stroke-linejoin="round"/>
<path d="M266.5 90.75C289.282 90.75 307.75 72.2817 307.75 49.5C307.75 26.7183 289.282 8.25 266.5 8.25C243.718 8.25 225.25 26.7183 225.25 49.5C225.25 72.2817 243.718 90.75 266.5 90.75Z" stroke="white" stroke-width="4" stroke-linecap="round" stroke-linejoin="round"/>
<path d="M99.5 164.75C122.282 164.75 140.75 146.282 140.75 123.5C140.75 100.718 122.282 82.25 99.5 82.25C76.7183 82.25 58.25 100.718 58.25 123.5C58.25 146.282 76.7183 164.75 99.5 164.75Z" stroke="white" stroke-width="4" stroke-linecap="round" stroke-linejoin="round"/>
<path d="M49.5 310.75C72.2817 310.75 90.75 292.282 90.75 269.5C90.75 246.718 72.2817 228.25 49.5 228.25C26.7183 228.25 8.25 246.718 8.25 269.5C8.25 292.282 26.7183 310.75 49.5 310.75Z" stroke="white" stroke-width="4" stroke-linecap="round" stroke-linejoin="round"/>
<path d="M99.5 451.75C122.282 451.75 140.75 433.282 140.75 410.5C140.75 387.718 122.282 369.25 99.5 369.25C76.7183 369.25 58.25 387.718 58.25 410.5C58.25 433.282 76.7183 451.75 99.5 451.75Z" stroke="white" stroke-width="4" stroke-linecap="round" stroke-linejoin="round"/>
</svg>
