<svg width="204" height="603" viewBox="0 0 204 603" fill="none" xmlns="http://www.w3.org/2000/svg">
<path d="M102 378.333C148.944 378.333 187 341.024 187 295C187 248.976 148.944 211.667 102 211.667C55.0558 211.667 17 248.976 17 295C17 341.024 55.0558 378.333 102 378.333Z" stroke="white" stroke-width="4" stroke-linecap="round" stroke-linejoin="round"/>
<path d="M102 596.5C119.489 596.5 133.667 581.949 133.667 564C133.667 546.051 119.489 531.5 102 531.5C84.5111 531.5 70.3335 546.051 70.3335 564C70.3335 581.949 84.5111 596.5 102 596.5Z" stroke="white" stroke-width="4" stroke-linecap="round" stroke-linejoin="round"/>
<path d="M102 71.5C119.489 71.5 133.667 56.9493 133.667 39C133.667 21.0507 119.489 6.5 102 6.5C84.5111 6.5 70.3335 21.0507 70.3335 39C70.3335 56.9493 84.5111 71.5 102 71.5Z" stroke="white" stroke-width="4" stroke-linecap="round" stroke-linejoin="round"/>
<path d="M102 99V195" stroke="white" stroke-width="5"/>
<path d="M102 412V508" stroke="white" stroke-width="5"/>
</svg>
