<svg width="436" height="36" viewBox="0 0 436 36" fill="none" xmlns="http://www.w3.org/2000/svg">
<path d="M15.488 35.48C13.344 35.48 11.36 35.24 9.536 34.76C7.712 34.28 6.048 33.56 4.544 32.6C3.04 31.64 1.696 30.424 0.512 28.952L3.872 24.728C5.728 26.936 7.568 28.504 9.392 29.432C11.248 30.36 13.36 30.824 15.728 30.824C17.2 30.824 18.576 30.632 19.856 30.248C21.168 29.832 22.224 29.256 23.024 28.52C23.856 27.752 24.272 26.84 24.272 25.784C24.272 25.08 24.064 24.472 23.648 23.96C23.264 23.448 22.736 23.016 22.064 22.664C21.424 22.28 20.672 21.96 19.808 21.704C18.976 21.448 18.112 21.24 17.216 21.08C16.32 20.888 15.44 20.728 14.576 20.6C12.624 20.28 10.88 19.864 9.344 19.352C7.808 18.808 6.496 18.136 5.408 17.336C4.352 16.504 3.552 15.544 3.008 14.456C2.464 13.336 2.192 12.056 2.192 10.616C2.192 9.144 2.528 7.816 3.2 6.632C3.872 5.416 4.816 4.392 6.032 3.56C7.248 2.696 8.672 2.04 10.304 1.592C11.936 1.144 13.712 0.919998 15.632 0.919998C17.648 0.919998 19.488 1.144 21.152 1.592C22.816 2.04 24.304 2.712 25.616 3.608C26.928 4.472 28.016 5.544 28.88 6.824L25.328 10.52C24.56 9.464 23.664 8.568 22.64 7.832C21.616 7.096 20.496 6.536 19.28 6.152C18.096 5.768 16.832 5.576 15.488 5.576C13.952 5.576 12.592 5.768 11.408 6.152C10.256 6.536 9.328 7.08 8.624 7.784C7.952 8.456 7.616 9.272 7.616 10.232C7.616 11 7.808 11.688 8.192 12.296C8.608 12.872 9.184 13.368 9.92 13.784C10.656 14.2 11.568 14.552 12.656 14.84C13.744 15.128 14.992 15.384 16.4 15.608C18.256 15.896 19.984 16.28 21.584 16.76C23.216 17.208 24.64 17.784 25.856 18.488C27.072 19.192 28.016 20.056 28.688 21.08C29.36 22.104 29.696 23.352 29.696 24.824C29.696 26.968 29.104 28.84 27.92 30.44C26.768 32.04 25.136 33.288 23.024 34.184C20.912 35.048 18.4 35.48 15.488 35.48ZM57.3369 35.48C54.6489 35.48 52.1689 35.048 49.8969 34.184C47.6569 33.288 45.6889 32.056 43.9929 30.488C42.3289 28.92 41.0329 27.096 40.1049 25.016C39.2089 22.904 38.7609 20.632 38.7609 18.2C38.7609 15.768 39.2089 13.512 40.1049 11.432C41.0329 9.32 42.3289 7.48 43.9929 5.912C45.6889 4.344 47.6569 3.128 49.8969 2.264C52.1689 1.368 54.6489 0.919998 57.3369 0.919998C60.0569 0.919998 62.5369 1.352 64.7769 2.216C67.0489 3.08 69.0169 4.312 70.6809 5.912C72.3769 7.48 73.6729 9.32 74.5689 11.432C75.4969 13.512 75.9609 15.768 75.9609 18.2C75.9609 20.632 75.4969 22.904 74.5689 25.016C73.6729 27.096 72.3769 28.936 70.6809 30.536C69.0169 32.104 67.0489 33.32 64.7769 34.184C62.5369 35.048 60.0569 35.48 57.3369 35.48ZM57.3849 30.44C59.3369 30.44 61.1129 30.136 62.7129 29.528C64.3449 28.888 65.7529 28.024 66.9369 26.936C68.1209 25.816 69.0329 24.52 69.6729 23.048C70.3449 21.544 70.6809 19.928 70.6809 18.2C70.6809 16.472 70.3449 14.872 69.6729 13.4C69.0329 11.896 68.1209 10.6 66.9369 9.512C65.7529 8.392 64.3449 7.528 62.7129 6.92C61.0809 6.28 59.3049 5.96 57.3849 5.96C55.4329 5.96 53.6409 6.28 52.0089 6.92C50.3769 7.528 48.9529 8.376 47.7369 9.464C46.5529 10.552 45.6409 11.848 45.0009 13.352C44.3609 14.824 44.0409 16.44 44.0409 18.2C44.0409 19.928 44.3609 21.544 45.0009 23.048C45.6409 24.552 46.5529 25.848 47.7369 26.936C48.9529 28.024 50.3769 28.888 52.0089 29.528C53.6409 30.136 55.4329 30.44 57.3849 30.44ZM87.3819 35V1.4H92.5659V30.008H112.054V35H87.3819ZM120.196 35L135.076 1.4H140.788L155.62 35H150.004L140.308 13.112C140.084 12.696 139.828 12.136 139.54 11.432C139.284 10.728 138.996 9.992 138.676 9.224C138.388 8.424 138.1 7.656 137.812 6.92C137.556 6.152 137.332 5.496 137.14 4.952L138.484 4.904C138.228 5.576 137.956 6.28 137.668 7.016C137.412 7.752 137.14 8.504 136.852 9.272C136.564 10.008 136.276 10.728 135.988 11.432C135.7 12.104 135.428 12.728 135.172 13.304L125.572 35H120.196ZM126.724 26.936L128.692 21.944H146.596L148.036 26.936H126.724ZM165.616 35V1.4H182.896C184.848 1.4 186.64 1.864 188.272 2.792C189.904 3.72 191.216 4.984 192.208 6.584C193.2 8.152 193.696 9.928 193.696 11.912C193.696 13.832 193.168 15.608 192.112 17.24C191.088 18.84 189.712 20.12 187.984 21.08C186.288 22.04 184.416 22.52 182.368 22.52H170.8V35H165.616ZM188.992 35L178.816 19.832L184.24 18.632L195.376 35.048L188.992 35ZM170.8 17.528H182.32C183.408 17.528 184.4 17.272 185.296 16.76C186.192 16.248 186.912 15.56 187.456 14.696C188 13.832 188.272 12.888 188.272 11.864C188.272 10.808 187.968 9.88 187.36 9.08C186.784 8.248 186 7.592 185.008 7.112C184.016 6.632 182.912 6.392 181.696 6.392H170.8V17.528ZM214.314 35V6.392H202.986V1.4H231.066V6.392H219.498V35H214.314ZM235.087 35L249.967 1.4H255.679L270.511 35H264.895L255.199 13.112C254.975 12.696 254.719 12.136 254.431 11.432C254.175 10.728 253.887 9.992 253.567 9.224C253.279 8.424 252.991 7.656 252.703 6.92C252.447 6.152 252.223 5.496 252.031 4.952L253.375 4.904C253.119 5.576 252.847 6.28 252.559 7.016C252.303 7.752 252.031 8.504 251.743 9.272C251.455 10.008 251.167 10.728 250.879 11.432C250.591 12.104 250.319 12.728 250.063 13.304L240.463 35H235.087ZM241.615 26.936L243.583 21.944H261.487L262.927 26.936H241.615ZM280.507 35V1.4H297.787C299.739 1.4 301.531 1.864 303.163 2.792C304.795 3.72 306.107 4.984 307.099 6.584C308.091 8.152 308.587 9.928 308.587 11.912C308.587 13.832 308.059 15.608 307.003 17.24C305.979 18.84 304.603 20.12 302.875 21.08C301.179 22.04 299.307 22.52 297.259 22.52H285.691V35H280.507ZM303.883 35L293.707 19.832L299.131 18.632L310.267 35.048L303.883 35ZM285.691 17.528H297.211C298.299 17.528 299.291 17.272 300.187 16.76C301.083 16.248 301.803 15.56 302.347 14.696C302.891 13.832 303.163 12.888 303.163 11.864C303.163 10.808 302.859 9.88 302.251 9.08C301.675 8.248 300.891 7.592 299.899 7.112C298.907 6.632 297.803 6.392 296.587 6.392H285.691V17.528ZM322.03 35V30.008H329.326V6.392H322.03V1.4H341.806V6.392H334.51V30.008H341.806V35H322.03ZM370.34 35.288C367.3 35.288 364.612 34.648 362.276 33.368C359.972 32.056 358.164 30.264 356.852 27.992C355.572 25.72 354.932 23.16 354.932 20.312V1.352H360.116V20.024C360.116 21.976 360.564 23.736 361.46 25.304C362.388 26.84 363.62 28.056 365.156 28.952C366.724 29.816 368.452 30.248 370.34 30.248C372.324 30.248 374.1 29.816 375.668 28.952C377.268 28.056 378.516 26.84 379.412 25.304C380.34 23.736 380.804 21.976 380.804 20.024V1.352H385.748V20.312C385.748 23.16 385.092 25.72 383.78 27.992C382.5 30.264 380.692 32.056 378.356 33.368C376.052 34.648 373.38 35.288 370.34 35.288ZM399.148 35V1.4H404.236L418.204 20.792L416.092 20.744L430.108 1.4H435.1V35H429.916V20.936C429.916 18.184 429.98 15.656 430.108 13.352C430.236 11.016 430.492 8.664 430.876 6.296L431.452 8.216L418.635 25.352H415.468L402.844 8.264L403.372 6.296C403.756 8.6 404.012 10.904 404.14 13.208C404.268 15.512 404.332 18.088 404.332 20.936V35H399.148Z" fill="white"/>
</svg>
